<?xml version="1.0" encoding="utf-8"?>
<!-- Svg Vector Icons : http://www.onlinewebfonts.com/icon -->
<!DOCTYPE svg PUBLIC "-//W3C//DTD SVG 1.1//EN" "http://www.w3.org/Graphics/SVG/1.1/DTD/svg11.dtd">
<svg version="1.1" xmlns="http://www.w3.org/2000/svg" xmlns:xlink="http://www.w3.org/1999/xlink" x="0px" y="0px" viewBox="0 0 1000 1000" enable-background="new 0 0 1000 1000" xml:space="preserve">
<metadata> Svg Vector Icons : http://www.onlinewebfonts.com/icon </metadata>
<g><g transform="translate(0.000000,512.000000) scale(0.100000,-0.100000)"><path d="M7482.6,4705.6c-341.2-44.1-665.2-151.4-924-306.7c-454.3-272.2-734.2-621.1-874.2-1087c-44.1-145.7-51.7-203.2-51.7-427.5c0-226.2,7.7-279.9,51.7-431.3c97.8-322.1,322.1-667.1,556-855c57.5-46,105.4-97.8,107.4-115c1.9-78.6-180.2-387.2-302.9-519.5c-141.9-149.5-143.8-184-13.4-214.7c176.4-42.2,803.3,80.5,1179,228.1l182.1,72.8l335.5,3.8c393,3.8,623,44.1,929.8,164.9c600,233.9,1021.8,671,1190.5,1238.4c44.1,145.7,51.8,203.2,51.8,427.5c0,226.2-5.8,279.9-51.8,427.5c-208.9,692.1-795.6,1194.3-1581.6,1355.4C8042.4,4713.3,7682,4730.6,7482.6,4705.6z M6711.9,3193.1c201.3-101.6,241.5-393,76.7-557.9c-253.1-253.1-678.7-11.5-592.4,337.4C6253.8,3196.9,6497.2,3302.3,6711.9,3193.1z M7935,3196.9c34.5-17.2,84.4-57.5,109.3-90.1c205.1-272.2-38.3-648-366.2-565.5c-264.6,67.1-354.6,398.7-161,592.4C7630.2,3246.8,7781.7,3269.8,7935,3196.9z M9161.9,3196.9c80.5-38.3,147.6-126.5,174.5-230c47.9-180.2-70.9-377.7-253.1-425.6c-350.8-86.3-592.4,339.3-339.3,592.4C8857.1,3246.8,9008.6,3269.8,9161.9,3196.9z"/><path d="M3083,3164.3c-116.9-32.6-182.1-93.9-207-195.5l-21.1-78.6l-180.2-11.5c-542.5-36.4-855-272.2-973.9-734.2c-63.3-245.4-84.3-807.1-38.3-1046.7c9.6-46,3.8-51.8-72.9-63.3c-278-46-322.1-235.8-184-786c67.1-274.2,159.1-391.1,325.9-421.8c42.2-7.7,74.8-26.8,80.5-46c103.5-364.2,189.8-573.2,327.8-803.2c93.9-153.4,301-427.5,371.9-490.8c36.4-34.5,40.3-55.6,40.3-287.6c0-320.2-9.6-337.4-249.2-460.1c-149.5-76.7-314.4-130.4-786-260.7c-509.9-139.9-879.9-304.8-1077.4-477.4c-120.8-107.3-214.7-255-276.1-435.2c-44.1-134.2-51.8-189.8-59.4-467.8c-7.7-302.9-7.7-320.1,36.4-402.6c32.6-63.3,67.1-97.8,130.4-128.4l84.4-44.1h3117.1h3117.1l84.4,44.1c63.3,30.7,97.8,65.2,130.4,128.4c44.1,84.4,44.1,97.8,36.4,431.3c-15.3,488.8-70.9,669.1-270.3,847.3c-185.9,166.8-632.6,364.2-1146.4,504.2c-467.8,130.4-632.6,184-782.2,260.7c-241.6,124.6-249.2,138-249.2,473.5v266.5l115,151.4c230,306.7,379.6,611.5,483.1,983.5l57.5,212.8h109.3c155.3,1.9,233.9,55.6,306.7,207c88.2,189.8,168.7,586.6,147.6,734.3c-23,174.5-93.9,243.5-274.1,268.4l-95.8,11.5l26.8,138c19.2,92,24.9,218.5,19.2,394.9c-7.7,226.2-15.4,278-65.2,416c-143.8,394.9-431.3,697.8-878,922.1C3939.9,3120.2,3339.8,3237.2,3083,3164.3z"/></g></g>
</svg>